<?xml version="1.0" encoding="utf-8"?>
<!-- Generator: Adobe Illustrator 26.0.2, SVG Export Plug-In . SVG Version: 6.00 Build 0)  -->
<svg version="1.1" id="Layer_1" xmlns="http://www.w3.org/2000/svg" xmlns:xlink="http://www.w3.org/1999/xlink" x="0px" y="0px"
	 viewBox="0 0 500 100" style="enable-background:new 0 0 500 100;" xml:space="preserve">
<style type="text/css">
	.st0{fill:#BE1E2D;}
	.st1{fill:#EF4136;}
	.st2{fill:#F15A29;}
	.st3{fill:#F9ED32;}
	.st4{fill:#8DC63F;}
	.st5{fill:#39B54A;}
	.st6{fill:#006838;}
	.st7{fill:#00A79D;}
	.st8{fill:#27AAE1;}
	.st9{fill:#662D91;}
	.st10{fill:#9E1F63;}
</style>
<path class="st0" d="M76.88,46.75h-4.72c-0.38-3.14-1.97-4.72-4.77-4.72c-1.29,0-2.4,0.46-3.32,1.39c-0.93,0.93-1.39,2.04-1.39,3.32
	v14.2c0,1.29,0.46,2.41,1.39,3.35c0.93,0.95,2.04,1.42,3.32,1.42c2.8,0,4.39-1.59,4.77-4.77h4.72c-0.38,6.33-3.54,9.49-9.49,9.49
	h-4.72c-2.58,0-4.8-0.93-6.68-2.78c-1.88-1.86-2.81-4.09-2.81-6.7v-14.2c0-2.58,0.94-4.79,2.81-6.65c1.88-1.86,4.1-2.78,6.68-2.78
	h4.72C73.37,37.32,76.53,40.46,76.88,46.75z"/>
<path class="st1" d="M95.79,70.44h-9.49V37.32h9.49v9.43c0.38-3.14,1.35-5.5,2.93-7.07c1.57-1.57,3.76-2.36,6.56-2.36H110v9.43
	h-9.49c-1.29,0-2.4,0.46-3.32,1.39c-0.93,0.93-1.39,2.06-1.39,3.38V70.44z"/>
<path class="st2" d="M143.12,56.24H124.2v4.71c0,1.29,0.46,2.41,1.39,3.35c0.93,0.95,2.04,1.42,3.32,1.42h4.77
	c3.14,0,4.72-1.59,4.72-4.77h4.72c-0.72,6.33-3.86,9.49-9.43,9.49h-9.49c-2.58,0-4.8-0.93-6.68-2.78c-1.88-1.86-2.81-4.09-2.81-6.7
	v-14.2c0-2.58,0.94-4.79,2.81-6.65c1.88-1.86,4.1-2.78,6.68-2.78h9.49c2.58,0,4.79,0.93,6.65,2.78c1.86,1.86,2.78,4.07,2.78,6.65
	V56.24z M124.2,51.52h9.49v-4.77c0-1.29-0.46-2.4-1.39-3.32c-0.93-0.93-2.06-1.39-3.38-1.39c-1.29,0-2.4,0.46-3.32,1.39
	c-0.93,0.93-1.39,2.04-1.39,3.32V51.52z"/>
<path class="st3" d="M171.58,51.52v-4.77c0-1.29-0.46-2.4-1.39-3.32c-0.93-0.93-2.06-1.39-3.38-1.39h-4.72
	c-2.8,0-4.38,1.57-4.72,4.72h-4.77c0.76-6.29,3.92-9.43,9.49-9.43h9.49c2.58,0,4.79,0.93,6.65,2.78c1.86,1.86,2.78,4.07,2.78,6.65
	v23.69h-9.43v-4.72c-0.38,3.14-1.97,4.72-4.77,4.72h-4.72c-2.58,0-4.8-0.93-6.68-2.78c-1.88-1.86-2.81-4.09-2.81-6.7
	c0-2.58,0.94-4.79,2.81-6.65c1.88-1.85,4.1-2.78,6.68-2.78H171.58z M171.58,56.24h-4.77c-1.29,0-2.4,0.46-3.32,1.39
	c-0.93,0.93-1.39,2.04-1.39,3.32c0,1.29,0.46,2.41,1.39,3.35c0.93,0.95,2.04,1.42,3.32,1.42c1.33,0,2.45-0.47,3.38-1.42
	c0.93-0.95,1.39-2.06,1.39-3.35V56.24z"/>
<path class="st4" d="M195.27,27.83h9.43v9.49h4.77v4.72h-4.77v18.92c0,1.55,0.51,2.74,1.53,3.55c1.02,0.82,1.95,1.22,2.78,1.22h0.45
	v4.72h-4.77c-2.58,0-4.79-0.93-6.65-2.78c-1.86-1.86-2.78-4.09-2.78-6.7V42.03h-4.77v-4.72h4.77V27.83z"/>
<path class="st5" d="M218.91,32.54v-4.72h9.49v4.72H218.91z M218.91,70.44V37.32h9.49v33.12H218.91z"/>
<path class="st6" d="M256.8,37.32h9.43v16.93c0,4.43-1.58,8.24-4.74,11.42c-3.16,3.18-6.96,4.77-11.39,4.77h-12.27V37.32h9.49v28.41
	h4.72c1.33,0,2.45-0.47,3.38-1.42c0.93-0.95,1.39-2.06,1.39-3.35V37.32z"/>
<path class="st7" d="M304.13,56.24h-18.92v4.71c0,1.29,0.46,2.41,1.39,3.35c0.93,0.95,2.04,1.42,3.32,1.42h4.77
	c3.14,0,4.72-1.59,4.72-4.77h4.71c-0.72,6.33-3.86,9.49-9.43,9.49h-9.49c-2.58,0-4.8-0.93-6.68-2.78c-1.88-1.86-2.81-4.09-2.81-6.7
	v-14.2c0-2.58,0.94-4.79,2.81-6.65c1.88-1.86,4.1-2.78,6.68-2.78h9.49c2.58,0,4.79,0.93,6.65,2.78c1.86,1.86,2.78,4.07,2.78,6.65
	V56.24z M285.21,51.52h9.49v-4.77c0-1.29-0.46-2.4-1.39-3.32c-0.93-0.93-2.06-1.39-3.38-1.39c-1.29,0-2.4,0.46-3.32,1.39
	c-0.93,0.93-1.39,2.04-1.39,3.32V51.52z"/>
<path class="st8" d="M327.82,27.83h9.49v37.9h4.72c1.33,0,2.45-0.47,3.38-1.42c0.93-0.95,1.39-2.06,1.39-3.35V27.83h9.43v37.9H361
	c1.29,0,2.4-0.47,3.32-1.42c0.93-0.95,1.39-2.06,1.39-3.35V27.83h9.49v26.42c0,4.43-1.58,8.24-4.74,11.42
	c-3.16,3.18-6.98,4.77-11.45,4.77h-12.21v-1.48c-1.82,0.99-4.05,1.48-6.7,1.48h-12.27V27.83z"/>
<path class="st9" d="M384.63,70.44V27.83h23.69v4.72h-14.2v14.2h9.49v4.77h-9.49v14.2h14.2v4.72H384.63z"/>
<path class="st10" d="M417.76,70.44V27.83h18.98c2.58,0,4.79,0.94,6.65,2.81c1.86,1.87,2.78,4.1,2.78,6.68v2.33
	c0,2.8-0.79,4.99-2.36,6.56c-1.57,1.57-3.93,2.55-7.07,2.93c3.14,0,5.5,0.96,7.07,2.87c1.57,1.91,2.36,4.12,2.36,6.62v2.33
	c0,2.58-0.93,4.8-2.78,6.68c-1.86,1.88-4.07,2.81-6.65,2.81H417.76z M427.24,46.75h4.72c1.33,0,2.45-0.46,3.38-1.39
	c0.93-0.93,1.39-2.04,1.39-3.32v-4.72c0-1.33-0.46-2.45-1.39-3.38c-0.93-0.93-2.06-1.39-3.38-1.39h-4.72V46.75z M427.24,65.72h4.72
	c1.33,0,2.45-0.47,3.38-1.42c0.93-0.95,1.39-2.06,1.39-3.35v-4.71c0-3.14-1.59-4.72-4.77-4.72h-4.72V65.72z"/>
</svg>
