<?xml version="1.0" encoding="utf-8"?>
<!-- Generator: Adobe Illustrator 26.0.2, SVG Export Plug-In . SVG Version: 6.00 Build 0)  -->
<svg version="1.1" id="Layer_1" xmlns="http://www.w3.org/2000/svg" xmlns:xlink="http://www.w3.org/1999/xlink" x="0px" y="0px"
	 viewBox="0 0 1000 1000" style="enable-background:new 0 0 1000 1000;" xml:space="preserve">
<style type="text/css">
	.st0{opacity:0.25;fill:#FFF500;}
	.st1{opacity:0.25;fill:#F2F500;}
	.st2{opacity:0.25;fill:#CDE600;}
	.st3{opacity:0.25;fill:#A9E100;}
	.st4{opacity:0.25;fill:#77E100;}
	.st5{opacity:0.25;fill:#35BD00;}
	.st6{opacity:0.25;fill:#0AA200;}
	.st7{opacity:0.25;fill:#0AB15D;}
	.st8{opacity:0.25;fill:#0AB197;}
	.st9{opacity:0.25;fill:#00CDC5;}
	.st10{opacity:0.25;fill:#00DECF;}
	.st11{opacity:0.25;fill:#00CDD4;}
	.st12{opacity:0.25;fill:#00C5ED;}
	.st13{opacity:0.25;fill:#2DACE1;}
	.st14{opacity:0.25;fill:#0081E2;}
	.st15{opacity:0.25;fill:#0054E3;}
	.st16{opacity:0.25;fill:#3050B3;}
	.st17{opacity:0.25;fill:#264687;}
	.st18{opacity:0.25;fill:#2F357E;}
	.st19{opacity:0.25;fill:#53357E;}
	.st20{opacity:0.25;fill:#72217E;}
	.st21{opacity:0.25;fill:#860062;}
	.st22{opacity:0.25;fill:#95004E;}
	.st23{opacity:0.25;fill:#AC0062;}
	.st24{opacity:0.25;fill:#9D0D42;}
	.st25{opacity:0.25;fill:#C52B00;}
	.st26{opacity:0.25;fill:#D90000;}
	.st27{opacity:0.25;fill:#FF1C00;}
	.st28{opacity:0.25;fill:#FF3800;}
	.st29{opacity:0.25;fill:#FF5600;}
	.st30{opacity:0.25;fill:#FF7900;}
	.st31{opacity:0.25;fill:#FFA400;}
	.st32{opacity:0.25;fill:#FFCA00;}
	.st33{opacity:0.25;fill:#FFDC00;}
	.st34{opacity:0.25;fill:#FFE600;}
</style>
<g>
	<ellipse class="st0" cx="494.29" cy="279.9" rx="132.97" ry="230.35"/>
	
		<ellipse transform="matrix(0.9848 -0.1736 0.1736 0.9848 -42.3096 83.1927)" class="st1" cx="454.29" cy="283.4" rx="132.97" ry="230.35"/>
	
		<ellipse transform="matrix(0.9397 -0.342 0.342 0.9397 -75.4235 159.83)" class="st2" cx="415.51" cy="293.79" rx="132.97" ry="230.35"/>
	
		<ellipse transform="matrix(0.866 -0.5 0.5 0.866 -104.5871 231.1926)" class="st3" cx="379.12" cy="310.76" rx="132.97" ry="230.35"/>
	
		<ellipse transform="matrix(0.766 -0.6428 0.6428 0.766 -133.5542 300.6418)" class="st4" cx="346.23" cy="333.79" rx="132.97" ry="230.35"/>
	
		<ellipse transform="matrix(0.6428 -0.766 0.766 0.6428 -163.9134 372.8505)" class="st5" cx="317.83" cy="362.18" rx="132.97" ry="230.35"/>
	
		<ellipse transform="matrix(0.5 -0.866 0.866 0.5 -194.7424 452.8433)" class="st6" cx="294.8" cy="395.07" rx="132.97" ry="230.35"/>
	
		<ellipse transform="matrix(0.342 -0.9397 0.9397 0.342 -222.6355 544.9728)" class="st7" cx="277.83" cy="431.46" rx="132.97" ry="230.35"/>
	
		<ellipse transform="matrix(0.1736 -0.9848 0.9848 0.1736 -242.1053 651.9694)" class="st8" cx="267.44" cy="470.25" rx="132.97" ry="230.35"/>
	<ellipse class="st9" cx="263.94" cy="510.25" rx="230.35" ry="132.97"/>
	
		<ellipse transform="matrix(0.9848 -0.1736 0.1736 0.9848 -91.4869 54.8001)" class="st10" cx="267.44" cy="550.25" rx="230.35" ry="132.97"/>
	
		<ellipse transform="matrix(0.9397 -0.342 0.342 0.9397 -184.7066 130.5477)" class="st11" cx="277.83" cy="589.04" rx="230.35" ry="132.97"/>
	
		<ellipse transform="matrix(0.866 -0.5 0.5 0.866 -273.2172 231.1926)" class="st12" cx="294.8" cy="625.43" rx="230.35" ry="132.97"/>
	
		<ellipse transform="matrix(0.766 -0.6428 0.6428 0.766 -348.7997 358.3166)" class="st13" cx="317.83" cy="658.32" rx="230.35" ry="132.97"/>
	
		<ellipse transform="matrix(0.6428 -0.766 0.766 0.6428 -402.3746 510.5261)" class="st14" cx="346.23" cy="686.71" rx="230.35" ry="132.97"/>
	
		<ellipse transform="matrix(0.5 -0.866 0.866 0.5 -425.0953 683.1963)" class="st15" cx="379.12" cy="709.74" rx="230.35" ry="132.97"/>
	
		<ellipse transform="matrix(0.342 -0.9397 0.9397 0.342 -409.4885 868.6117)" class="st16" cx="415.51" cy="726.71" rx="230.35" ry="132.97"/>
	
		<ellipse transform="matrix(0.1736 -0.9848 0.9848 0.1736 -350.4986 1056.4988)" class="st17" cx="454.29" cy="737.1" rx="230.35" ry="132.97"/>
	<ellipse class="st18" cx="494.29" cy="740.6" rx="132.97" ry="230.35"/>
	
		<ellipse transform="matrix(0.9848 -0.1736 0.1736 0.9848 -119.8795 103.9775)" class="st19" cx="534.29" cy="737.1" rx="132.97" ry="230.35"/>
	
		<ellipse transform="matrix(0.9397 -0.342 0.342 0.9397 -213.9889 239.8307)" class="st20" cx="573.08" cy="726.71" rx="132.97" ry="230.35"/>
	
		<ellipse transform="matrix(0.866 -0.5 0.5 0.866 -273.2172 399.8226)" class="st21" cx="609.47" cy="709.74" rx="132.97" ry="230.35"/>
	
		<ellipse transform="matrix(0.766 -0.6428 0.6428 0.766 -291.1249 573.5622)" class="st22" cx="642.36" cy="686.71" rx="132.97" ry="230.35"/>
	
		<ellipse transform="matrix(0.6428 -0.766 0.766 0.6428 -264.699 748.9872)" class="st23" cx="670.75" cy="658.32" rx="132.97" ry="230.35"/>
	
		<ellipse transform="matrix(0.5 -0.866 0.866 0.5 -194.7424 913.5492)" class="st24" cx="693.79" cy="625.43" rx="132.97" ry="230.35"/>
	
		<ellipse transform="matrix(0.342 -0.9397 0.9397 0.342 -85.8496 1055.4647)" class="st25" cx="710.76" cy="589.04" rx="132.97" ry="230.35"/>
	
		<ellipse transform="matrix(0.1736 -0.9848 0.9848 0.1736 54.0307 1164.892)" class="st26" cx="721.15" cy="550.25" rx="132.97" ry="230.35"/>
	<ellipse class="st27" cx="724.65" cy="510.25" rx="230.35" ry="132.97"/>
	
		<ellipse transform="matrix(0.9848 -0.1736 0.1736 0.9848 -70.7021 132.3701)" class="st28" cx="721.15" cy="470.25" rx="230.35" ry="132.97"/>
	
		<ellipse transform="matrix(0.9397 -0.342 0.342 0.9397 -104.7058 269.1131)" class="st29" cx="710.76" cy="431.46" rx="230.35" ry="132.97"/>
	
		<ellipse transform="matrix(0.866 -0.5 0.5 0.866 -104.5871 399.8226)" class="st30" cx="693.79" cy="395.07" rx="230.35" ry="132.97"/>
	
		<ellipse transform="matrix(0.766 -0.6428 0.6428 0.766 -75.8793 515.8873)" class="st31" cx="670.75" cy="362.18" rx="230.35" ry="132.97"/>
	
		<ellipse transform="matrix(0.6428 -0.766 0.766 0.6428 -26.2378 611.3116)" class="st32" cx="642.36" cy="333.79" rx="230.35" ry="132.97"/>
	
		<ellipse transform="matrix(0.5 -0.866 0.866 0.5 35.6105 683.1963)" class="st33" cx="609.47" cy="310.76" rx="230.35" ry="132.97"/>
	
		<ellipse transform="matrix(0.342 -0.9397 0.9397 0.342 101.0033 731.8258)" class="st33" cx="573.08" cy="293.79" rx="230.35" ry="132.97"/>
	
		<ellipse transform="matrix(0.1736 -0.9848 0.9848 0.1736 162.424 760.3627)" class="st34" cx="534.29" cy="283.4" rx="230.35" ry="132.97"/>
</g>
</svg>
